<svg width="800" height="500" xmlns="http://www.w3.org/2000/svg">
    <defs>
        <linearGradient gradientTransform="matrix(1,0,0,1,0,-139)" y2="139" x2="400" y1="885" x1="400"
                        gradientUnits="userSpaceOnUse" id="svg_21">
            <stop stop-color="#F8FAFC" stop-opacity="0" offset="0.4171"/>
            <stop stop-color="#ECEFF4" offset="1"/>
        </linearGradient>
        <linearGradient gradientTransform="matrix(1,0,0,1,0,-139)" y2="444" x2="400" y1="583" x1="400"
                        gradientUnits="userSpaceOnUse" id="svg_20">
            <stop stop-color="#DFE2E5" stop-opacity="0" offset="0"/>
            <stop stop-color="#D7DCE2" stop-opacity="0.5" offset="1"/>
        </linearGradient>
        <linearGradient gradientTransform="matrix(1,0,0,1,0,-139)" y2="472.9501" x2="400" y1="562" x1="400"
                        gradientUnits="userSpaceOnUse" id="svg_19">
            <stop stop-color="#A7B1C1" offset="0"/>
            <stop stop-color="#D7DDE2" offset="1"/>
        </linearGradient>
        <linearGradient gradientTransform="matrix(1,0,0,1,0,-139)" y2="444" x2="400" y1="544.212" x1="400"
                        gradientUnits="userSpaceOnUse" id="svg_18">
            <stop stop-color="#C6D0E0" offset="0"/>
            <stop stop-color="#FFFFFF" offset="1"/>
        </linearGradient>
        <linearGradient gradientTransform="matrix(1,0,0,1,0,-139)" y2="487.8147" x2="383.2398" y1="533" x1="383.2398"
                        gradientUnits="userSpaceOnUse" id="svg_17">
            <stop stop-color="#CED8E0" stop-opacity="0" offset="0"/>
            <stop stop-color="#B4C0CC" offset="1"/>
        </linearGradient>
        <linearGradient gradientTransform="matrix(1,0,0,1,0,-139)" y2="313.2509" x2="274.7429" y1="482.5321"
                        x1="444.024" gradientUnits="userSpaceOnUse" id="svg_16">
            <stop stop-color="#A7B1C1" offset="0"/>
            <stop stop-color="#D7DDE2" offset="1"/>
        </linearGradient>
        <linearGradient gradientTransform="matrix(1,0,0,1,0,-139)" y2="291.4345" x2="295.8979" y1="504.0394"
                        x1="418.6454" gradientUnits="userSpaceOnUse" id="svg_15">
            <stop stop-color="#C6D0E0" offset="0"/>
            <stop stop-color="#EFF2F6" offset="1"/>
        </linearGradient>
        <linearGradient gradientTransform="matrix(1,0,0,1,0,-139)" y2="484.6883" x2="479.136" y1="513.5934" x1="479.136"
                        gradientUnits="userSpaceOnUse" id="svg_14">
            <stop stop-color="#CED8E0" stop-opacity="0" offset="0"/>
            <stop stop-color="#B4C0CC" offset="1"/>
        </linearGradient>
        <linearGradient
                gradientTransform="matrix(0.9991999864578247,-0.03995615988969803,0.03995615988969803,0.9991999864578247,-106.35060119628906,20.778793334960938)"
                y2="194.8436" x2="598.1831" y1="349.8625" x1="551.6262" gradientUnits="userSpaceOnUse" id="svg_13">
            <stop stop-color="#A7B1C1" offset="0"/>
            <stop stop-color="#D7DDE2" offset="1"/>
        </linearGradient>
        <linearGradient
                gradientTransform="matrix(0.9991999864578247,-0.03995615988969803,0.03995615988969803,0.9991999864578247,-106.35060119628906,20.778793334960938)"
                y2="211.27" x2="527.7808" y1="342.9785" x1="603.8228" gradientUnits="userSpaceOnUse" id="svg_12">
            <stop stop-color="#C6D0E0" offset="0"/>
            <stop stop-color="#EFF2F6" offset="1"/>
        </linearGradient>
        <linearGradient gradientTransform="matrix(1,0,0,1,0,-139)" y2="203" x2="456" y1="286" x1="456"
                        gradientUnits="userSpaceOnUse" id="svg_11">
            <stop stop-color="#F8FAFC" stop-opacity="0" offset="0"/>
            <stop stop-color="#D9E1ED" offset="0.5"/>
            <stop stop-color="#F8FAFC" stop-opacity="0" offset="1"/>
        </linearGradient>
        <linearGradient gradientTransform="matrix(1,0,0,1,0,-139)" y2="283" x2="553.9995" y1="397" x1="553.9995"
                        gradientUnits="userSpaceOnUse" id="svg_10">
            <stop stop-color="#F8FAFC" stop-opacity="0" offset="0"/>
            <stop stop-color="#D9E1ED" offset="0.5"/>
            <stop stop-color="#F8FAFC" stop-opacity="0" offset="1"/>
        </linearGradient>
        <linearGradient gradientTransform="matrix(1,0,0,1,0,-139)" y2="417" x2="212" y1="521" x1="212"
                        gradientUnits="userSpaceOnUse" id="svg_9">
            <stop stop-color="#F8FAFC" stop-opacity="0" offset="0"/>
            <stop stop-color="#D9E1ED" offset="0.5"/>
            <stop stop-color="#F8FAFC" stop-opacity="0" offset="1"/>
        </linearGradient>
        <linearGradient gradientTransform="matrix(1,0,0,1,0,-139)" y2="256" x2="356" y1="376" x1="356"
                        gradientUnits="userSpaceOnUse" id="svg_8">
            <stop stop-color="#F8FAFC" stop-opacity="0" offset="0"/>
            <stop stop-color="#D9E1ED" offset="0.5"/>
            <stop stop-color="#F8FAFC" stop-opacity="0" offset="1"/>
        </linearGradient>
        <linearGradient gradientTransform="matrix(1,0,0,1,0,-139)" y2="339.5474" x2="561.0703" y1="339.5474"
                        x1="547.9287" gradientUnits="userSpaceOnUse" id="svg_7">
            <stop stop-color="#B6C2D3" offset="0"/>
            <stop stop-color="#C6D2E0" offset="1"/>
        </linearGradient>
        <linearGradient gradientTransform="matrix(1,0,0,1,0,-139)" y2="316.6592" x2="359.7295" y1="316.6592"
                        x1="351.0879" gradientUnits="userSpaceOnUse" id="svg_6">
            <stop stop-color="#B6C2D3" offset="0"/>
            <stop stop-color="#C6D2E0" offset="1"/>
        </linearGradient>
        <linearGradient gradientTransform="matrix(1,0,0,1,0,-139)" y2="468.6592" x2="220.5215" y1="468.6592"
                        x1="204.1885" gradientUnits="userSpaceOnUse" id="svg_5">
            <stop stop-color="#B6C2D3" offset="0"/>
            <stop stop-color="#C6D2E0" offset="1"/>
        </linearGradient>
        <linearGradient gradientTransform="matrix(1,0,0,1,0,-139)" y2="430" x2="408" y1="526" x1="408"
                        gradientUnits="userSpaceOnUse" id="svg_4">
            <stop stop-color="#F8FAFC" stop-opacity="0" offset="0"/>
            <stop stop-color="#D9E1ED" offset="0.5"/>
            <stop stop-color="#F8FAFC" stop-opacity="0" offset="1"/>
        </linearGradient>
        <linearGradient gradientTransform="matrix(1,0,0,1,0,-139)" y2="455" x2="595" y1="577" x1="595"
                        gradientUnits="userSpaceOnUse" id="svg_3">
            <stop stop-color="#F8FAFC" stop-opacity="0" offset="0"/>
            <stop stop-color="#D9E1ED" offset="0.5"/>
            <stop stop-color="#F8FAFC" stop-opacity="0" offset="1"/>
        </linearGradient>
        <linearGradient gradientTransform="matrix(1,0,0,1,0,-139)" y2="517.6592" x2="603.5215" y1="517.6592"
                        x1="587.1885" gradientUnits="userSpaceOnUse" id="svg_2">
            <stop stop-color="#B6C2D3" offset="0"/>
            <stop stop-color="#C6D2E0" offset="1"/>
        </linearGradient>
    </defs>
    <g>
        <title>Layer 1</title>
        <g>
            <g>
                <ellipse fill="url(#svg_21)" ry="373" rx="400" cy="373" cx="400" class="st0"/>
                <ellipse fill="url(#svg_20)" ry="69.5" rx="193.9" cy="374.5" cx="400" class="st1"/>
                <g>
                    <path fill="url(#svg_19)"
                          d="m574,372.9c0,27.7 -77.9,50.1 -174,50.1s-174,-22.4 -174,-50.1c0,-6 0,-10 0,-16.7c24.1,-19.3 98.6,-22.3 174,-22.3c76.8,0 150.9,0.2 174,20c0,11.2 0,13.4 0,19z"
                          class="st2"/>
                    <ellipse fill="url(#svg_18)" ry="50.1" rx="174" cy="355.1" cx="400" class="st3"/>
                </g>
                <g>
                    <g>
                        <polygon fill="url(#svg_17)" opacity="0.98"
                                 points="486.79998779296875,394 290,389 279.70001220703125,348.79998779296875 443.20001220703125,348.79998779296875 "
                                 class="st4"/>
                        <g>
                            <path fill="url(#svg_16)"
                                  d="m421.2,201.3l-7.7,0l0,-32.8c0,-31.9 -23.9,-57.3 -54,-57.3s-54.1,25.5 -54.1,57.4l0,32.8l-7.7,0c-13.1,0 -23.2,10.6 -23.2,24.6l0,106.4c0,13.9 10,24.6 23.2,24.6l123.5,0c13.1,0 23.2,-10.6 23.2,-24.6l0,-106.6c-0.1,-13.8 -10.1,-24.5 -23.2,-24.5l0,0zm-54.1,79.4l0,18.8c0,4.9 -3.1,8.2 -7.7,8.2s-7.7,-3.3 -7.7,-8.2l0,-18.8c-4.6,-2.4 -7.7,-8.2 -7.7,-13.9c0,-9 6.9,-16.4 15.5,-16.4c8.6,0 15.5,7.3 15.5,16.4c-0.2,5.7 -3.3,11.4 -7.9,13.9l0,0zm30.9,-79.4l-77.2,0l0,-32.8c0,-23 17,-40.9 38.6,-40.9s38.6,18 38.6,40.9c0,0.1 0,32.8 0,32.8l0,0z"
                                  class="st5"/>
                            <path fill="url(#svg_15)"
                                  d="m426.7,206.3l-7.5,0l0,-31.7c0,-30.9 -23.1,-55.4 -52.3,-55.4c-29.1,0 -52.4,24.6 -52.4,55.5l0,31.7l-7.5,0c-12.7,0 -22.4,10.2 -22.4,23.8l0,103c0,13.4 9.7,23.8 22.4,23.8l119.5,0c12.7,0 22.4,-10.2 22.4,-23.8l0,-103.1c0.1,-13.4 -9.5,-23.8 -22.2,-23.8l0,0zm-52.4,76.9l0,18.2c0,4.8 -3,7.9 -7.5,7.9c-4.5,0 -7.5,-3.2 -7.5,-7.9l0,-18.2c-4.5,-2.3 -7.5,-7.9 -7.5,-13.4c0,-8.7 6.7,-15.9 15,-15.9c8.3,0 15,7.1 15,15.9c0,5.5 -3,10.9 -7.5,13.4l0,0zm29.9,-76.9l-74.7,0l0,-31.7c0,-22.2 16.5,-39.5 37.3,-39.5c20.8,0 37.3,17.4 37.3,39.5c0.1,0.1 0.1,31.7 0.1,31.7l0,0z"
                                  class="st6"/>
                        </g>
                    </g>
                    <g>
                        <ellipse fill="url(#svg_14)" opacity="0.98" ry="14.5" rx="37.3" cy="360.1" cx="479.1"
                                 class="st7"/>
                        <g>
                            <path fill="url(#svg_13)"
                                  d="m467.4,184.1c-6.3,0.3 -9.4,3.5 -9.1,9.9l0.2,5.6l-3.9,0.2c-0.1,0 -0.2,0 -0.3,0c-5.2,0.3 -9.2,4.8 -8.9,10c0.3,5.2 4.8,9.2 10,8.9l3.9,-0.2l0.3,7.9l-13.4,0.5c-5.1,0.3 -9.1,4.6 -9,9.7c0.1,5.2 4.5,9.4 9.7,9.3l13.4,-0.5l0.4,11.1c-8.8,2.1 -17,6.8 -23.6,13.9c-17.8,19.3 -16.6,49.4 2.7,67.2c19.3,17.8 49.4,16.6 67.2,-2.7c17.8,-19.3 16.6,-49.4 -2.7,-67.2c-7.1,-6.6 -15.7,-10.5 -24.6,-12l-2.5,-62.6c-0.1,-6.3 -3.4,-9.3 -9.8,-9zm18.7,131.5c-7.1,7.7 -19.2,8.2 -26.9,1.1c-7.7,-7.1 -8.2,-19.2 -1.1,-26.9c7.1,-7.7 19.2,-8.2 26.9,-1.1c7.8,7.1 8.3,19.1 1.1,26.9z"
                                  class="st8"/>
                            <path fill="url(#svg_12)"
                                  d="m473.4,185.1c-6.3,0.3 -9.4,3.5 -9.1,9.9l0.2,5.6l-3.9,0.2c-0.1,0 -0.2,0 -0.3,0c-5.2,0.3 -9.2,4.8 -8.9,10c0.3,5.2 4.8,9.2 10,8.9l3.9,-0.2l0.3,7.9l-13.4,0.5c-5.1,0.3 -9.1,4.6 -9,9.7c0.1,5.2 4.5,9.4 9.7,9.3l13.4,-0.5l0.4,11.1c-8.8,2.1 -17,6.8 -23.6,13.9c-17.8,19.3 -16.6,49.4 2.7,67.2c19.3,17.8 49.4,16.6 67.2,-2.7c17.8,-19.3 16.6,-49.4 -2.7,-67.2c-7.1,-6.6 -15.7,-10.5 -24.6,-12l-2.5,-62.6c-0.2,-6.2 -3.5,-9.2 -9.8,-9zm18.7,131.5c-7.1,7.7 -19.2,8.2 -26.9,1.1c-7.7,-7.1 -8.2,-19.2 -1.1,-26.9c7.1,-7.7 19.2,-8.2 26.9,-1.1c7.7,7.2 8.2,19.2 1.1,26.9z"
                                  class="st9"/>
                        </g>
                    </g>
                </g>
                <rect fill="url(#svg_11)" height="83" width="16" class="st10" y="64" x="448"/>
                <rect fill="url(#svg_10)" height="114" width="20" class="st11" y="144" x="544"/>
                <rect fill="url(#svg_9)" height="104" width="24" class="st12" y="278" x="200"/>
                <rect fill="url(#svg_8)" height="120" width="24" class="st13" y="117" x="344"/>
                <g>
                    <path fill="url(#svg_7)"
                          d="m559.5,193.8c1.1,1.7 1.6,3.9 1.6,6.7s-0.5,5.1 -1.6,6.7c-1.2,1.8 -2.8,2.7 -5,2.7c-2.1,0 -3.8,-0.9 -5,-2.7c-1.1,-1.7 -1.6,-3.9 -1.6,-6.7c0,-2.9 0.5,-5.1 1.6,-6.7c1.2,-1.8 2.8,-2.7 5,-2.7c2.1,0 3.8,0.9 5,2.7zm-8.2,2.1c-0.4,1.1 -0.7,2.6 -0.7,4.6c0,2 0.2,3.5 0.7,4.6c0.6,1.6 1.7,2.5 3.2,2.5c1.5,0 2.5,-0.8 3.2,-2.5c0.4,-1.2 0.7,-2.7 0.7,-4.6c0,-2 -0.2,-3.5 -0.7,-4.6c-0.6,-1.6 -1.7,-2.5 -3.2,-2.5c-1.5,0 -2.5,0.9 -3.2,2.5z"
                          class="st14"/>
                </g>
                <g>
                    <path fill="url(#svg_6)"
                          d="m359.7,166.4l0,22.6l-3.5,0l0,-18.5c-1.4,1.3 -3.1,2.3 -5.2,2.8l0,-3.4c1,-0.3 2.1,-0.7 3.2,-1.3c1.1,-0.7 2.1,-1.5 2.8,-2.2l2.7,0z"
                          class="st15"/>
                </g>
                <g>
                    <path fill="url(#svg_5)"
                          d="m218.5,321.3c1.3,2.1 2,4.9 2,8.4s-0.7,6.3 -2,8.4c-1.5,2.2 -3.5,3.4 -6.2,3.4c-2.6,0 -4.7,-1.1 -6.2,-3.4c-1.3,-2.1 -2,-4.9 -2,-8.4c0,-3.5 0.7,-6.3 2,-8.4c1.5,-2.2 3.5,-3.4 6.2,-3.4c2.7,0 4.8,1.1 6.2,3.4zm-10.1,2.6c-0.5,1.4 -0.8,3.3 -0.8,5.8c0,2.5 0.3,4.4 0.8,5.8c0.8,2 2.1,3.1 3.9,3.1c1.9,0 3.2,-1 3.9,-3.1c0.5,-1.5 0.8,-3.4 0.8,-5.8c0,-2.4 -0.3,-4.3 -0.8,-5.8c-0.8,-2 -2.1,-3.1 -3.9,-3.1c-1.8,0 -3.1,1.1 -3.9,3.1z"
                          class="st16"/>
                </g>
                <rect fill="url(#svg_4)" height="96" width="24" class="st17" y="291" x="396"/>
                <rect fill="url(#svg_3)" height="122" width="24" class="st18" y="316" x="583"/>
                <g>
                    <g>
                        <path fill="#ADB8C9"
                              d="m411.7,327.4l0,22.6l-3.5,0l0,-18.5c-1.4,1.3 -3.1,2.3 -5.2,2.8l0,-3.4c1,-0.3 2.1,-0.7 3.2,-1.3c1.1,-0.7 2.1,-1.5 2.8,-2.2l2.7,0z"
                              class="st19"/>
                    </g>
                </g>
                <g>
                    <path fill="url(#svg_2)"
                          d="m601.5,370.3c1.3,2.1 2,4.9 2,8.4s-0.7,6.3 -2,8.4c-1.5,2.2 -3.5,3.4 -6.2,3.4c-2.6,0 -4.7,-1.1 -6.2,-3.4c-1.3,-2.1 -2,-4.9 -2,-8.4c0,-3.5 0.7,-6.3 2,-8.4c1.5,-2.2 3.5,-3.4 6.2,-3.4c2.7,0 4.8,1.1 6.2,3.4zm-10.1,2.6c-0.5,1.4 -0.8,3.3 -0.8,5.8c0,2.5 0.3,4.4 0.8,5.8c0.8,2 2.1,3.1 3.9,3.1c1.9,0 3.2,-1 3.9,-3.1c0.5,-1.5 0.8,-3.4 0.8,-5.8c0,-2.4 -0.3,-4.3 -0.8,-5.8c-0.8,-2 -2.1,-3.1 -3.9,-3.1c-1.8,0 -3.1,1.1 -3.9,3.1z"
                          class="st20"/>
                </g>
            </g>
        </g>
    </g>
</svg>