<svg width="800" height="500" xmlns="http://www.w3.org/2000/svg">
    <defs>
        <linearGradient gradientTransform="matrix(1,0,0,1,0,-139)" y2="139" x2="400" y1="885" x1="400"
                        gradientUnits="userSpaceOnUse" id="svg_21">
            <stop stop-color="#F8FAFC" stop-opacity="0" offset="0.4171"/>
            <stop stop-color="#ECEFF4" offset="1"/>
        </linearGradient>
        <linearGradient gradientTransform="matrix(1,0,0,1,0,-139)" y2="444" x2="400" y1="583" x1="400"
                        gradientUnits="userSpaceOnUse" id="svg_20">
            <stop stop-color="#DFE2E5" stop-opacity="0" offset="0"/>
            <stop stop-color="#D7DCE2" stop-opacity="0.5" offset="1"/>
        </linearGradient>
        <linearGradient gradientTransform="matrix(1,0,0,1,0,-139)" y2="472.9501" x2="400" y1="562" x1="400"
                        gradientUnits="userSpaceOnUse" id="svg_19">
            <stop stop-color="#A7B1C1" offset="0"/>
            <stop stop-color="#D7DDE2" offset="1"/>
        </linearGradient>
        <linearGradient gradientTransform="matrix(1,0,0,1,0,-139)" y2="444" x2="400" y1="544.212" x1="400"
                        gradientUnits="userSpaceOnUse" id="svg_18">
            <stop stop-color="#C6D0E0" offset="0"/>
            <stop stop-color="#FFFFFF" offset="1"/>
        </linearGradient>
        <linearGradient gradientTransform="matrix(1,0,0,1,0,-139)" y2="487.8147" x2="383.2398" y1="533" x1="383.2398"
                        gradientUnits="userSpaceOnUse" id="svg_17">
            <stop stop-color="#CED8E0" stop-opacity="0" offset="0"/>
            <stop stop-color="#B4C0CC" offset="1"/>
        </linearGradient>
        <linearGradient gradientTransform="matrix(1,0,0,1,0,-139)" y2="313.2509" x2="274.7429" y1="482.5321"
                        x1="444.024" gradientUnits="userSpaceOnUse" id="svg_16">
            <stop stop-color="#A7B1C1" offset="0"/>
            <stop stop-color="#D7DDE2" offset="1"/>
        </linearGradient>
        <linearGradient gradientTransform="matrix(1,0,0,1,0,-139)" y2="291.4345" x2="295.8979" y1="504.0394"
                        x1="418.6454" gradientUnits="userSpaceOnUse" id="svg_15">
            <stop stop-color="#C6D0E0" offset="0"/>
            <stop stop-color="#EFF2F6" offset="1"/>
        </linearGradient>
        <linearGradient gradientTransform="matrix(1,0,0,1,0,-139)" y2="484.6883" x2="479.136" y1="513.5934" x1="479.136"
                        gradientUnits="userSpaceOnUse" id="svg_14">
            <stop stop-color="#CED8E0" stop-opacity="0" offset="0"/>
            <stop stop-color="#B4C0CC" offset="1"/>
        </linearGradient>
        <linearGradient
                gradientTransform="matrix(0.9991999864578247,-0.03995615988969803,0.03995615988969803,0.9991999864578247,-106.35060119628906,20.778793334960938)"
                y2="194.8436" x2="598.1831" y1="349.8625" x1="551.6262" gradientUnits="userSpaceOnUse" id="svg_13">
            <stop stop-color="#A7B1C1" offset="0"/>
            <stop stop-color="#D7DDE2" offset="1"/>
        </linearGradient>
        <linearGradient
                gradientTransform="matrix(0.9991999864578247,-0.03995615988969803,0.03995615988969803,0.9991999864578247,-106.35060119628906,20.778793334960938)"
                y2="211.27" x2="527.7808" y1="342.9785" x1="603.8228" gradientUnits="userSpaceOnUse" id="svg_12">
            <stop stop-color="#C6D0E0" offset="0"/>
            <stop stop-color="#EFF2F6" offset="1"/>
        </linearGradient>
        <linearGradient gradientTransform="matrix(1,0,0,1,0,-139)" y2="203" x2="456" y1="286" x1="456"
                        gradientUnits="userSpaceOnUse" id="svg_11">
            <stop stop-color="#F8FAFC" stop-opacity="0" offset="0"/>
            <stop stop-color="#D9E1ED" offset="0.5"/>
            <stop stop-color="#F8FAFC" stop-opacity="0" offset="1"/>
        </linearGradient>
        <linearGradient gradientTransform="matrix(1,0,0,1,0,-139)" y2="283" x2="553.9995" y1="397" x1="553.9995"
                        gradientUnits="userSpaceOnUse" id="svg_10">
            <stop stop-color="#F8FAFC" stop-opacity="0" offset="0"/>
            <stop stop-color="#D9E1ED" offset="0.5"/>
            <stop stop-color="#F8FAFC" stop-opacity="0" offset="1"/>
        </linearGradient>
        <linearGradient gradientTransform="matrix(1,0,0,1,0,-139)" y2="417" x2="212" y1="521" x1="212"
                        gradientUnits="userSpaceOnUse" id="svg_9">
            <stop stop-color="#F8FAFC" stop-opacity="0" offset="0"/>
            <stop stop-color="#D9E1ED" offset="0.5"/>
            <stop stop-color="#F8FAFC" stop-opacity="0" offset="1"/>
        </linearGradient>
        <linearGradient gradientTransform="matrix(1,0,0,1,0,-139)" y2="256" x2="356" y1="376" x1="356"
                        gradientUnits="userSpaceOnUse" id="svg_8">
            <stop stop-color="#F8FAFC" stop-opacity="0" offset="0"/>
            <stop stop-color="#D9E1ED" offset="0.5"/>
            <stop stop-color="#F8FAFC" stop-opacity="0" offset="1"/>
        </linearGradient>
        <linearGradient gradientTransform="matrix(1,0,0,1,0,-139)" y2="339.5474" x2="561.0703" y1="339.5474"
                        x1="547.9287" gradientUnits="userSpaceOnUse" id="svg_7">
            <stop stop-color="#B6C2D3" offset="0"/>
            <stop stop-color="#C6D2E0" offset="1"/>
        </linearGradient>
        <linearGradient gradientTransform="matrix(1,0,0,1,0,-139)" y2="316.6592" x2="359.7295" y1="316.6592"
                        x1="351.0879" gradientUnits="userSpaceOnUse" id="svg_6">
            <stop stop-color="#B6C2D3" offset="0"/>
            <stop stop-color="#C6D2E0" offset="1"/>
        </linearGradient>
        <linearGradient gradientTransform="matrix(1,0,0,1,0,-139)" y2="468.6592" x2="220.5215" y1="468.6592"
                        x1="204.1885" gradientUnits="userSpaceOnUse" id="svg_5">
            <stop stop-color="#B6C2D3" offset="0"/>
            <stop stop-color="#C6D2E0" offset="1"/>
        </linearGradient>
        <linearGradient gradientTransform="matrix(1,0,0,1,0,-139)" y2="430" x2="408" y1="526" x1="408"
                        gradientUnits="userSpaceOnUse" id="svg_4">
            <stop stop-color="#F8FAFC" stop-opacity="0" offset="0"/>
            <stop stop-color="#D9E1ED" offset="0.5"/>
            <stop stop-color="#F8FAFC" stop-opacity="0" offset="1"/>
        </linearGradient>
        <linearGradient gradientTransform="matrix(1,0,0,1,0,-139)" y2="455" x2="595" y1="577" x1="595"
                        gradientUnits="userSpaceOnUse" id="svg_3">
            <stop stop-color="#F8FAFC" stop-opacity="0" offset="0"/>
            <stop stop-color="#D9E1ED" offset="0.5"/>
            <stop stop-color="#F8FAFC" stop-opacity="0" offset="1"/>
        </linearGradient>
        <linearGradient gradientTransform="matrix(1,0,0,1,0,-139)" y2="517.6592" x2="603.5215" y1="517.6592"
                        x1="587.1885" gradientUnits="userSpaceOnUse" id="svg_2">
            <stop stop-color="#B6C2D3" offset="0"/>
            <stop stop-color="#C6D2E0" offset="1"/>
        </linearGradient>
        <linearGradient gradientTransform="matrix(1,0,0,1,-1,-139)" y2="139" x2="400" y1="885" x1="400"
                        gradientUnits="userSpaceOnUse" id="svg_41">
            <stop stop-color="#F8FAFC" stop-opacity="0" offset="0.4171"/>
            <stop stop-color="#ECEFF4" offset="1"/>
        </linearGradient>
        <linearGradient gradientTransform="matrix(1,0,0,1,-1,-139)" y2="421.639" x2="400" y1="618.6671" x1="400"
                        gradientUnits="userSpaceOnUse" id="svg_40">
            <stop stop-color="#DFE2E5" stop-opacity="0" offset="0"/>
            <stop stop-color="#D7DCE2" stop-opacity="0.5" offset="1"/>
        </linearGradient>
        <linearGradient y2="491.8904" x2="472.1974" y1="370.3037" x1="472.1974" gradientUnits="userSpaceOnUse"
                        id="svg_39">
            <stop stop-color="#A7B1C1" offset="0"/>
            <stop stop-color="#E5E9F0" offset="1"/>
        </linearGradient>
        <linearGradient gradientTransform="matrix(1,0,0,1,-1,-139)" y2="364.8367" x2="468.5048" y1="374.5" x1="468.5048"
                        gradientUnits="userSpaceOnUse" id="svg_38">
            <stop stop-color="#A7B1C1" offset="0"/>
            <stop stop-color="#D7DDE2" offset="1"/>
        </linearGradient>
        <linearGradient gradientTransform="matrix(1,0,0,1,-1,-139)" y2="297.5164" x2="468.106" y1="367.2227"
                        x1="468.106" gradientUnits="userSpaceOnUse" id="svg_37">
            <stop stop-color="#C6D0E0" offset="0"/>
            <stop stop-color="#EFF2F6" offset="1"/>
        </linearGradient>
        <linearGradient gradientTransform="matrix(1,0,0,1,-1,-139)" y2="297.5164" x2="483.8187" y1="367.2227"
                        x1="483.8187" gradientUnits="userSpaceOnUse" id="svg_36">
            <stop stop-color="#B8C2D3" stop-opacity="0.5" offset="0"/>
            <stop stop-color="#D7DCE2" stop-opacity="0.3" offset="1"/>
        </linearGradient>
        <linearGradient gradientTransform="matrix(1,0,0,1,-1,-139)" y2="486.5" x2="268.5" y1="620.5" x1="268.5"
                        gradientUnits="userSpaceOnUse" id="svg_35">
            <stop stop-color="#DFE2E5" stop-opacity="0" offset="0"/>
            <stop stop-color="#D7DCE2" stop-opacity="0.5" offset="1"/>
        </linearGradient>
        <linearGradient gradientTransform="matrix(1,0,0,1,-1,-139)" y2="491.5" x2="407" y1="629.5" x1="407"
                        gradientUnits="userSpaceOnUse" id="svg_34">
            <stop stop-color="#DFE2E5" stop-opacity="0" offset="0"/>
            <stop stop-color="#D7DCE2" stop-opacity="0.5" offset="1"/>
        </linearGradient>
        <linearGradient gradientTransform="matrix(1,0,0,1,-1,-139)" y2="481.5" x2="564" y1="625.5" x1="564"
                        gradientUnits="userSpaceOnUse" id="svg_33">
            <stop stop-color="#DFE2E5" stop-opacity="0" offset="0"/>
            <stop stop-color="#D7DCE2" stop-opacity="0.5" offset="1"/>
        </linearGradient>
        <linearGradient
                gradientTransform="matrix(0.9868000149726868,0.16210000216960907,-0.16210000216960907,0.9868000149726868,298.42169189453125,-671.7371215820312)"
                y2="928.7468" x2="68.8492" y1="1031.6804" x1="171.7829" gradientUnits="userSpaceOnUse" id="svg_32">
            <stop stop-color="#A7B1C1" offset="0"/>
            <stop stop-color="#D7DDE2" offset="1"/>
        </linearGradient>
        <linearGradient
                gradientTransform="matrix(0.9868000149726868,0.16210000216960907,-0.16210000216960907,0.9868000149726868,298.42169189453125,-671.7371215820312)"
                y2="937.9611" x2="59.6349" y1="1037.1782" x1="158.8519" gradientUnits="userSpaceOnUse" id="svg_31">
            <stop stop-color="#C6D0E0" offset="0"/>
            <stop stop-color="#EFF2F6" offset="1"/>
        </linearGradient>
        <linearGradient
                gradientTransform="matrix(0.9914000034332275,0.1305999606847763,-0.1305999606847763,0.9914000034332275,233.88479614257812,-587.8123779296875)"
                y2="800.1912" x2="237.8611" y1="943.6569" x1="320.691" gradientUnits="userSpaceOnUse" id="svg_30">
            <stop stop-color="#A7B1C1" offset="0"/>
            <stop stop-color="#D7DDE2" offset="1"/>
        </linearGradient>
        <linearGradient
                gradientTransform="matrix(0.9914000034332275,0.1305999606847763,-0.1305999606847763,0.9914000034332275,233.88479614257812,-587.8123779296875)"
                y2="798.7988" x2="222.2602" y1="942.2645" x1="305.0901" gradientUnits="userSpaceOnUse" id="svg_29">
            <stop stop-color="#C6D0E0" offset="0"/>
            <stop stop-color="#EFF2F6" offset="1"/>
        </linearGradient>
        <linearGradient gradientTransform="matrix(-1 0 0 1 7310.0586 0)" y2="486.5" x2="6956.0894" y1="328.0704"
                        x1="6956.0894" gradientUnits="userSpaceOnUse" id="svg_28">
            <stop stop-color="#A7B1C1" offset="0"/>
            <stop stop-color="#F0F2F7" offset="1"/>
        </linearGradient>
        <linearGradient gradientTransform="matrix(1,0,0,1,-362.6498107910156,-139)" y2="318.1955" x2="705.9178"
                        y1="330.5" x1="705.9178" gradientUnits="userSpaceOnUse" id="svg_27">
            <stop stop-color="#A7B1C1" offset="0"/>
            <stop stop-color="#D7DDE2" offset="1"/>
        </linearGradient>
        <linearGradient gradientTransform="matrix(1,0,0,1,-1,-139)" y2="232.4755" x2="343.7601" y1="321.2337"
                        x1="343.7601" gradientUnits="userSpaceOnUse" id="svg_26">
            <stop stop-color="#C6D0E0" offset="0"/>
            <stop stop-color="#EFF2F6" offset="1"/>
        </linearGradient>
        <linearGradient gradientTransform="matrix(1,0,0,1,-1,-139)" y2="232.4755" x2="363.7674" y1="321.2337"
                        x1="363.7674" gradientUnits="userSpaceOnUse" id="svg_25">
            <stop stop-color="#B8C2D3" stop-opacity="0.5" offset="0"/>
            <stop stop-color="#D7DCE2" stop-opacity="0.3" offset="1"/>
        </linearGradient>
        <linearGradient
                gradientTransform="matrix(0.9868999719619751,-0.16120000183582306,0.16120000183582306,0.9868999719619751,-205.39039611816406,474.8328857421875)"
                y2="-96.7486" x2="728.3815" y1="31.9955" x1="802.712" gradientUnits="userSpaceOnUse" id="svg_24">
            <stop stop-color="#A7B1C1" offset="0"/>
            <stop stop-color="#D7DDE2" offset="1"/>
        </linearGradient>
        <linearGradient
                gradientTransform="matrix(0.9868999719619751,-0.16120000183582306,0.16120000183582306,0.9868999719619751,-205.39039611816406,474.8328857421875)"
                y2="-98.9981" x2="709.3815" y1="29.746" x1="783.712" gradientUnits="userSpaceOnUse" id="svg_23">
            <stop stop-color="#C6D0E0" offset="0"/>
            <stop stop-color="#EFF2F6" offset="1"/>
        </linearGradient>
    </defs>
    <g>
        <title>Layer 1</title>
        <g>
            <g>
                <ellipse fill="url(#svg_21)" ry="373" rx="400" cy="373" cx="400" class="st0"/>
                <ellipse fill="url(#svg_20)" ry="69.5" rx="193.9" cy="374.5" cx="400" class="st1"/>
                <g>
                    <path fill="url(#svg_19)"
                          d="m574,372.9c0,27.7 -77.9,50.1 -174,50.1s-174,-22.4 -174,-50.1c0,-6 0,-10 0,-16.7c24.1,-19.3 98.6,-22.3 174,-22.3c76.8,0 150.9,0.2 174,20c0,11.2 0,13.4 0,19z"
                          class="st2"/>
                    <ellipse fill="url(#svg_18)" ry="50.1" rx="174" cy="355.1" cx="400" class="st3"/>
                </g>
                <g>
                    <g>
                        <polygon fill="url(#svg_17)" opacity="0.98"
                                 points="486.79998779296875,394 290,389 279.70001220703125,348.79998779296875 443.20001220703125,348.79998779296875 "
                                 class="st4"/>
                        <g>
                            <path fill="url(#svg_16)"
                                  d="m421.2,201.3l-7.7,0l0,-32.8c0,-31.9 -23.9,-57.3 -54,-57.3s-54.1,25.5 -54.1,57.4l0,32.8l-7.7,0c-13.1,0 -23.2,10.6 -23.2,24.6l0,106.4c0,13.9 10,24.6 23.2,24.6l123.5,0c13.1,0 23.2,-10.6 23.2,-24.6l0,-106.6c-0.1,-13.8 -10.1,-24.5 -23.2,-24.5l0,0zm-54.1,79.4l0,18.8c0,4.9 -3.1,8.2 -7.7,8.2s-7.7,-3.3 -7.7,-8.2l0,-18.8c-4.6,-2.4 -7.7,-8.2 -7.7,-13.9c0,-9 6.9,-16.4 15.5,-16.4c8.6,0 15.5,7.3 15.5,16.4c-0.2,5.7 -3.3,11.4 -7.9,13.9l0,0zm30.9,-79.4l-77.2,0l0,-32.8c0,-23 17,-40.9 38.6,-40.9s38.6,18 38.6,40.9c0,0.1 0,32.8 0,32.8l0,0z"
                                  class="st5"/>
                            <path fill="url(#svg_15)"
                                  d="m426.7,206.3l-7.5,0l0,-31.7c0,-30.9 -23.1,-55.4 -52.3,-55.4c-29.1,0 -52.4,24.6 -52.4,55.5l0,31.7l-7.5,0c-12.7,0 -22.4,10.2 -22.4,23.8l0,103c0,13.4 9.7,23.8 22.4,23.8l119.5,0c12.7,0 22.4,-10.2 22.4,-23.8l0,-103.1c0.1,-13.4 -9.5,-23.8 -22.2,-23.8l0,0zm-52.4,76.9l0,18.2c0,4.8 -3,7.9 -7.5,7.9c-4.5,0 -7.5,-3.2 -7.5,-7.9l0,-18.2c-4.5,-2.3 -7.5,-7.9 -7.5,-13.4c0,-8.7 6.7,-15.9 15,-15.9c8.3,0 15,7.1 15,15.9c0,5.5 -3,10.9 -7.5,13.4l0,0zm29.9,-76.9l-74.7,0l0,-31.7c0,-22.2 16.5,-39.5 37.3,-39.5c20.8,0 37.3,17.4 37.3,39.5c0.1,0.1 0.1,31.7 0.1,31.7l0,0z"
                                  class="st6"/>
                        </g>
                    </g>
                    <g>
                        <ellipse fill="url(#svg_14)" opacity="0.98" ry="14.5" rx="37.3" cy="360.1" cx="479.1"
                                 class="st7"/>
                        <g>
                            <path fill="url(#svg_13)"
                                  d="m467.4,184.1c-6.3,0.3 -9.4,3.5 -9.1,9.9l0.2,5.6l-3.9,0.2c-0.1,0 -0.2,0 -0.3,0c-5.2,0.3 -9.2,4.8 -8.9,10c0.3,5.2 4.8,9.2 10,8.9l3.9,-0.2l0.3,7.9l-13.4,0.5c-5.1,0.3 -9.1,4.6 -9,9.7c0.1,5.2 4.5,9.4 9.7,9.3l13.4,-0.5l0.4,11.1c-8.8,2.1 -17,6.8 -23.6,13.9c-17.8,19.3 -16.6,49.4 2.7,67.2c19.3,17.8 49.4,16.6 67.2,-2.7c17.8,-19.3 16.6,-49.4 -2.7,-67.2c-7.1,-6.6 -15.7,-10.5 -24.6,-12l-2.5,-62.6c-0.1,-6.3 -3.4,-9.3 -9.8,-9zm18.7,131.5c-7.1,7.7 -19.2,8.2 -26.9,1.1c-7.7,-7.1 -8.2,-19.2 -1.1,-26.9c7.1,-7.7 19.2,-8.2 26.9,-1.1c7.8,7.1 8.3,19.1 1.1,26.9z"
                                  class="st8"/>
                            <path fill="url(#svg_12)"
                                  d="m473.4,185.1c-6.3,0.3 -9.4,3.5 -9.1,9.9l0.2,5.6l-3.9,0.2c-0.1,0 -0.2,0 -0.3,0c-5.2,0.3 -9.2,4.8 -8.9,10c0.3,5.2 4.8,9.2 10,8.9l3.9,-0.2l0.3,7.9l-13.4,0.5c-5.1,0.3 -9.1,4.6 -9,9.7c0.1,5.2 4.5,9.4 9.7,9.3l13.4,-0.5l0.4,11.1c-8.8,2.1 -17,6.8 -23.6,13.9c-17.8,19.3 -16.6,49.4 2.7,67.2c19.3,17.8 49.4,16.6 67.2,-2.7c17.8,-19.3 16.6,-49.4 -2.7,-67.2c-7.1,-6.6 -15.7,-10.5 -24.6,-12l-2.5,-62.6c-0.2,-6.2 -3.5,-9.2 -9.8,-9zm18.7,131.5c-7.1,7.7 -19.2,8.2 -26.9,1.1c-7.7,-7.1 -8.2,-19.2 -1.1,-26.9c7.1,-7.7 19.2,-8.2 26.9,-1.1c7.7,7.2 8.2,19.2 1.1,26.9z"
                                  class="st9"/>
                        </g>
                    </g>
                </g>
                <rect fill="url(#svg_11)" height="83" width="16" class="st10" y="64" x="448"/>
                <rect fill="url(#svg_10)" height="114" width="20" class="st11" y="144" x="544"/>
                <rect fill="url(#svg_9)" height="104" width="24" class="st12" y="278" x="200"/>
                <rect fill="url(#svg_8)" height="120" width="24" class="st13" y="117" x="344"/>
                <g>
                    <path fill="url(#svg_7)"
                          d="m559.5,193.8c1.1,1.7 1.6,3.9 1.6,6.7s-0.5,5.1 -1.6,6.7c-1.2,1.8 -2.8,2.7 -5,2.7c-2.1,0 -3.8,-0.9 -5,-2.7c-1.1,-1.7 -1.6,-3.9 -1.6,-6.7c0,-2.9 0.5,-5.1 1.6,-6.7c1.2,-1.8 2.8,-2.7 5,-2.7c2.1,0 3.8,0.9 5,2.7zm-8.2,2.1c-0.4,1.1 -0.7,2.6 -0.7,4.6c0,2 0.2,3.5 0.7,4.6c0.6,1.6 1.7,2.5 3.2,2.5c1.5,0 2.5,-0.8 3.2,-2.5c0.4,-1.2 0.7,-2.7 0.7,-4.6c0,-2 -0.2,-3.5 -0.7,-4.6c-0.6,-1.6 -1.7,-2.5 -3.2,-2.5c-1.5,0 -2.5,0.9 -3.2,2.5z"
                          class="st14"/>
                </g>
                <g>
                    <path fill="url(#svg_6)"
                          d="m359.7,166.4l0,22.6l-3.5,0l0,-18.5c-1.4,1.3 -3.1,2.3 -5.2,2.8l0,-3.4c1,-0.3 2.1,-0.7 3.2,-1.3c1.1,-0.7 2.1,-1.5 2.8,-2.2l2.7,0z"
                          class="st15"/>
                </g>
                <g>
                    <path fill="url(#svg_5)"
                          d="m218.5,321.3c1.3,2.1 2,4.9 2,8.4s-0.7,6.3 -2,8.4c-1.5,2.2 -3.5,3.4 -6.2,3.4c-2.6,0 -4.7,-1.1 -6.2,-3.4c-1.3,-2.1 -2,-4.9 -2,-8.4c0,-3.5 0.7,-6.3 2,-8.4c1.5,-2.2 3.5,-3.4 6.2,-3.4c2.7,0 4.8,1.1 6.2,3.4zm-10.1,2.6c-0.5,1.4 -0.8,3.3 -0.8,5.8c0,2.5 0.3,4.4 0.8,5.8c0.8,2 2.1,3.1 3.9,3.1c1.9,0 3.2,-1 3.9,-3.1c0.5,-1.5 0.8,-3.4 0.8,-5.8c0,-2.4 -0.3,-4.3 -0.8,-5.8c-0.8,-2 -2.1,-3.1 -3.9,-3.1c-1.8,0 -3.1,1.1 -3.9,3.1z"
                          class="st16"/>
                </g>
                <rect fill="url(#svg_4)" height="96" width="24" class="st17" y="291" x="396"/>
                <rect fill="url(#svg_3)" height="122" width="24" class="st18" y="316" x="583"/>
                <g>
                    <g>
                        <path fill="#ADB8C9"
                              d="m411.7,327.4l0,22.6l-3.5,0l0,-18.5c-1.4,1.3 -3.1,2.3 -5.2,2.8l0,-3.4c1,-0.3 2.1,-0.7 3.2,-1.3c1.1,-0.7 2.1,-1.5 2.8,-2.2l2.7,0z"
                              class="st19"/>
                    </g>
                </g>
                <g>
                    <path fill="url(#svg_2)"
                          d="m601.5,370.3c1.3,2.1 2,4.9 2,8.4s-0.7,6.3 -2,8.4c-1.5,2.2 -3.5,3.4 -6.2,3.4c-2.6,0 -4.7,-1.1 -6.2,-3.4c-1.3,-2.1 -2,-4.9 -2,-8.4c0,-3.5 0.7,-6.3 2,-8.4c1.5,-2.2 3.5,-3.4 6.2,-3.4c2.7,0 4.8,1.1 6.2,3.4zm-10.1,2.6c-0.5,1.4 -0.8,3.3 -0.8,5.8c0,2.5 0.3,4.4 0.8,5.8c0.8,2 2.1,3.1 3.9,3.1c1.9,0 3.2,-1 3.9,-3.1c0.5,-1.5 0.8,-3.4 0.8,-5.8c0,-2.4 -0.3,-4.3 -0.8,-5.8c-0.8,-2 -2.1,-3.1 -3.9,-3.1c-1.8,0 -3.1,1.1 -3.9,3.1z"
                          class="st20"/>
                </g>
            </g>
        </g>
        <g>
            <g>
                <ellipse fill="url(#svg_41)" ry="373" rx="400" cy="373" cx="399" class="st0"/>
                <ellipse fill="url(#svg_40)" ry="98.5" rx="254" cy="381.2" cx="399" class="st1"/>
                <g>
                    <path stroke-miterlimit="10" stroke-width="2" stroke="url(#svg_39)" fill="none"
                          d="m467.1,231.8c0,0 13.3,25.1 -3.1,56.7c-13,25 -2,52 20.5,63.5" class="st2"/>
                    <path fill="url(#svg_38)"
                          d="m465.8,226c0,0 0.5,1.4 -0.8,2.8c-0.8,0.9 -3.1,1.5 -4.2,2.6c-1.6,1.6 0.5,3.1 2.1,3.7c1.6,0.5 9.4,1 11.5,-1s-7.3,-3.7 -6,-8.1l-2.6,0z"
                          class="st3"/>
                    <g>
                        <ellipse fill="url(#svg_37)" ry="34.9" rx="31.4" cy="193.4" cx="467.1" class="st4"/>
                        <path fill="url(#svg_36)"
                              d="m498.5,193.4c0,19.2 -14.1,34.9 -31.4,34.9c13.1,-5.7 22,-14.1 24.1,-30.9c2.4,-19.1 -7.9,-36.2 -24.1,-38.8c17.4,-0.1 31.4,15.5 31.4,34.8z"
                              class="st5"/>
                        <path fill="#FFFFFF"
                              d="m451.6,175.5c-0.4,0 -0.7,-0.1 -1.1,-0.3c-0.8,-0.5 -1,-1.5 -0.5,-2.2c4.4,-5.3 9.2,-8.4 9.4,-8.5c0.8,-0.5 2,-0.4 2.6,0.3c0.6,0.7 0.4,1.7 -0.4,2.2c-0.1,0.1 -4.6,2.9 -8.6,7.8c-0.3,0.5 -0.9,0.7 -1.4,0.7zm-3.7,5.4c-0.3,0 -0.6,-0.1 -0.8,-0.2c-0.9,-0.4 -1.3,-1.3 -0.8,-2.1l0.5,-0.9c0.5,-0.8 1.6,-1.1 2.5,-0.7c0.9,0.4 1.3,1.3 0.8,2.1l-0.5,0.9c-0.4,0.5 -1,0.9 -1.7,0.9z"
                              class="st6"/>
                    </g>
                </g>
                <polygon fill="url(#svg_35)" points="357,480.5 178,481.5 199,356.1000061035156 250,369.5 302,347.5 "
                         class="st7"/>
                <polygon fill="url(#svg_34)" points="498,485.5 314,490.5 334,353.5 380,372.5 439,352.5 " class="st8"/>
                <polygon fill="url(#svg_33)" points="656,486.5 470,486.5 481,352.5 537.5999755859375,371.5 597,342.5 "
                         class="st9"/>
                <g>
                    <g>
                        <path fill="url(#svg_32)"
                              d="m238.6,391.4c-6.3,-1 -11.7,-2.1 -16.3,-3.3c-4.6,-1.2 -9.3,-2.6 -14.1,-4.3l-8.6,-31.5l15.3,-4.5c2.3,0.9 4.4,1.7 6.4,2.5c2,0.7 3.9,1.4 5.9,2.1c2,0.7 4.1,1.2 6.3,1.7c2.2,0.5 4.8,1 7.8,1.5c3.5,0.6 6.9,0.9 10.1,1.1c3.2,0.1 6.1,-0.2 8.6,-0.9c2.5,-0.7 4.7,-2 6.4,-3.7c1.7,-1.7 2.8,-4.2 3.3,-7.3c1,-6 -0.4,-10.3 -4.1,-12.9c-3.8,-2.6 -9.6,-4.5 -17.4,-5.8c-4.7,-0.8 -9.9,-1.3 -15.5,-1.6c-5.6,-0.3 -10.8,-0.5 -15.5,-0.4l8,-74.8l15.3,-4.5l75.5,12.4l-5.1,31l-15.3,4.5l-30.1,-12l-6.8,20.3c2.4,-0.1 4.7,-0.1 6.8,0c2.1,0.1 4.4,0.4 7,0.9c14.8,2.4 25.2,7.8 31.2,16c6,8.2 7.8,19.4 5.5,33.6c-2.5,15.3 -9.8,25.8 -21.7,31.5c-12,5.6 -29.4,11.7 -48.9,8.4z"
                              class="st10"/>
                    </g>
                    <g>
                        <path fill="url(#svg_31)"
                              d="m224.9,391.1c-6.3,-1 -11.7,-2.1 -16.3,-3.3c-4.6,-1.2 -9.3,-2.6 -14.1,-4.3l5.1,-31.2c2.3,0.9 4.4,1.7 6.4,2.5c2,0.7 3.9,1.4 5.9,2.1c2,0.7 4.1,1.2 6.3,1.7c2.2,0.5 4.8,1 7.8,1.5c3.5,0.6 6.9,0.9 10.1,1.1c3.2,0.1 6.1,-0.2 8.6,-0.9c2.5,-0.7 4.7,-2 6.4,-3.7c1.7,-1.7 2.8,-4.2 3.3,-7.3c1,-6 -0.4,-10.3 -4.1,-12.9c-3.8,-2.6 -9.6,-4.5 -17.4,-5.8c-4.7,-0.8 -9.9,-1.3 -15.5,-1.6c-5.6,-0.3 -10.8,-0.5 -15.5,-0.4l23.3,-79.3l75.5,12.4l-5.1,31l-45.4,-7.5l-6.8,20.3c2.4,-0.1 4.7,-0.1 6.8,0c2.1,0.1 4.4,0.4 7,0.9c14.8,2.4 25.2,7.8 31.2,16c6,8.2 7.8,19.4 5.5,33.6c-2.5,15.3 -9.8,25.8 -21.7,31.5c-12,5.6 -27.8,6.9 -47.3,3.6z"
                              class="st11"/>
                    </g>
                </g>
                <g>
                    <g>
                        <path fill="url(#svg_30)"
                              d="m386.1,395.6c-9.4,-1.2 -17.7,-3.6 -25.1,-6.9c-7.3,-3.4 -13.2,-8.6 -17.7,-15.5c-4.5,-6.9 -7.5,-15.9 -8.9,-27c-1.4,-11.1 -1.1,-24.9 1.1,-41.3c2.2,-16.5 5.4,-29.9 9.6,-40.1c4.2,-10.3 9.4,-18.1 15.6,-23.6c6.1,-5.5 13.2,-8.9 21.1,-10.3c7.9,-1.4 16.6,-1.5 26,-0.2c9.4,1.2 17.8,3.6 25.1,6.9c7.3,3.4 13.2,8.5 17.6,15.4c4.4,6.9 7.4,15.8 8.8,26.8c1.4,11 1.1,24.7 -1.1,41.2c-2.2,16.5 -5.4,29.9 -9.6,40.2c-4.3,10.3 -9.4,18.3 -15.5,23.8c-6.1,5.5 -13.1,9 -21,10.4c-7.9,1.4 -16.6,1.4 -26,0.2zm4.9,-37.4c3.7,0.5 6.8,0.3 9.4,-0.6c2.5,-0.9 4.7,-2.9 6.6,-6.1c1.8,-3.1 3.4,-7.6 4.8,-13.4c1.4,-5.8 2.7,-13.3 3.9,-22.5c1.2,-9.2 1.9,-16.9 2.1,-22.9c0.2,-6 -0.2,-10.8 -1.2,-14.4c-0.9,-3.6 -2.5,-6.1 -4.7,-7.7c-2.2,-1.5 -5.2,-2.6 -8.9,-3.1c-3.5,-0.5 -6.6,-0.2 -9.1,0.7c-2.6,0.9 -4.8,3 -6.7,6.2c-1.9,3.2 -3.6,7.7 -5,13.6c-1.4,5.9 -2.7,13.4 -3.9,22.6c-1.2,9.2 -1.9,16.8 -2.1,22.8c-0.2,5.9 0.3,10.7 1.3,14.2c1,3.5 2.7,6 4.9,7.6c2.2,1.5 5.1,2.5 8.6,3z"
                              class="st12"/>
                    </g>
                    <g>
                        <path fill="url(#svg_29)"
                              d="m370.8,392.2c-9.4,-1.2 -17.7,-3.6 -25.1,-6.9c-7.3,-3.4 -13.2,-8.6 -17.7,-15.5c-4.5,-6.9 -7.5,-15.9 -8.9,-27c-1.4,-11.1 -1.1,-24.9 1.1,-41.3c2.2,-16.5 5.4,-29.9 9.6,-40.1c4.2,-10.3 9.4,-18.1 15.6,-23.6c6.1,-5.5 13.2,-8.9 21.1,-10.3c7.9,-1.4 16.6,-1.5 26,-0.2c9.4,1.2 17.8,3.6 25.1,6.9c7.3,3.4 13.2,8.5 17.6,15.4c4.4,6.9 7.4,15.8 8.8,26.8c1.4,11 1.1,24.7 -1.1,41.2c-2.2,16.5 -5.4,29.9 -9.6,40.2c-4.3,10.3 -9.4,18.3 -15.5,23.8c-6.1,5.5 -13.1,9 -21,10.4c-7.9,1.3 -16.6,1.4 -26,0.2zm4.9,-37.5c3.7,0.5 6.8,0.3 9.4,-0.6c2.5,-0.9 4.7,-2.9 6.6,-6.1c1.8,-3.1 3.4,-7.6 4.8,-13.4c1.4,-5.8 2.7,-13.3 3.9,-22.5c1.2,-9.2 1.9,-16.9 2.1,-22.9c0.2,-6 -0.2,-10.8 -1.2,-14.4c-0.9,-3.6 -2.5,-6.1 -4.7,-7.7c-2.2,-1.5 -5.2,-2.6 -8.9,-3.1c-3.5,-0.5 -6.6,-0.2 -9.1,0.7c-2.6,0.9 -4.8,3 -6.7,6.2c-1.9,3.2 -3.6,7.7 -5,13.6c-1.4,5.9 -2.7,13.4 -3.9,22.6c-1.2,9.2 -1.9,16.8 -2.1,22.8c-0.2,5.9 0.3,10.7 1.3,14.2c1,3.5 2.7,6 4.9,7.6c2.2,1.6 5.1,2.6 8.6,3z"
                              class="st13"/>
                    </g>
                </g>
                <g>
                    <path stroke-miterlimit="10" stroke-width="2" stroke="url(#svg_28)" fill="none"
                          d="m343,189.8c7.9,8.4 18.3,23.5 10.3,39.8c-6.3,12.9 -38,17.4 -36.3,51.9c2,42 72,28 72,66"
                          class="st14"/>
                    <path fill="url(#svg_27)"
                          d="m341.1,179.3c0,0 0.7,1.7 -1,3.6c-1,1.1 -4,2 -5.3,3.3c-2,2 0.7,4 2.7,4.7s12,1.3 14.7,-1.3c2.7,-2.7 -9.3,-4.7 -7.6,-10.4l-3.5,0.1z"
                          class="st15"/>
                    <g>
                        <ellipse fill="url(#svg_26)" ry="44.4" rx="40" cy="137.9" cx="342.8" class="st16"/>
                        <path fill="url(#svg_25)"
                              d="m382.8,137.9c0,24.5 -17.9,44.4 -40,44.4c16.7,-7.3 28,-18 30.7,-39.3c3,-24.4 -10,-46.1 -30.7,-49.4c22.1,-0.1 40,19.7 40,44.3z"
                              class="st17"/>
                        <path fill="#FFFFFF"
                              d="m323,115.1c-0.5,0 -0.9,-0.1 -1.3,-0.4c-1.1,-0.6 -1.3,-1.9 -0.6,-2.8c5.6,-6.8 11.7,-10.7 12,-10.8c1,-0.7 2.5,-0.5 3.3,0.4c0.8,0.9 0.5,2.1 -0.5,2.8c-0.1,0.1 -5.8,3.7 -10.9,9.9c-0.6,0.6 -1.3,0.9 -2,0.9zm-4.7,6.8c-0.4,0 -0.7,-0.1 -1.1,-0.2c-1.2,-0.5 -1.6,-1.7 -1,-2.7l0.7,-1.1c0.6,-1 2,-1.4 3.2,-0.9c1.2,0.5 1.6,1.7 1,2.7l-0.7,1.1c-0.4,0.7 -1.2,1.1 -2.1,1.1z"
                              class="st6"/>
                    </g>
                </g>
                <g>
                    <g>
                        <path fill="url(#svg_24)"
                              d="m557,393.1c-8.4,1.4 -16.2,1.5 -23.3,0.5c-7.2,-1 -13.6,-3.9 -19.2,-8.7c-5.7,-4.8 -10.5,-11.8 -14.6,-20.9c-4.1,-9.1 -7.4,-21.1 -9.8,-35.8c-2.4,-14.7 -3.1,-27 -2.1,-37c1,-9.9 3.4,-18 7.3,-24.3c3.8,-6.3 9,-11 15.5,-14.3c6.5,-3.2 13.9,-5.6 22.3,-6.9c8.4,-1.4 16.2,-1.5 23.3,-0.5c7.2,1 13.5,3.9 19.1,8.6c5.6,4.7 10.4,11.6 14.5,20.7c4.1,9.1 7.3,21 9.8,35.7c2.4,14.7 3.1,27.1 2.1,37.1c-1,10 -3.4,18.1 -7.1,24.5c-3.8,6.3 -8.9,11.1 -15.3,14.4c-6.7,3.3 -14.1,5.6 -22.5,6.9zm-5.5,-33.4c3.3,-0.5 5.9,-1.5 7.9,-3c2,-1.4 3.3,-3.8 4.1,-6.9c0.8,-3.2 1,-7.4 0.7,-12.7c-0.3,-5.3 -1.1,-12.1 -2.5,-20.4c-1.3,-8.3 -2.7,-15 -4.1,-20.2c-1.4,-5.2 -3,-9.2 -4.7,-12c-1.7,-2.8 -3.8,-4.6 -6.1,-5.4c-2.3,-0.8 -5.1,-0.9 -8.4,-0.3c-3.2,0.5 -5.7,1.5 -7.7,2.9c-2,1.5 -3.3,3.8 -4.1,7c-0.8,3.2 -1.1,7.6 -0.7,12.9c0.3,5.4 1.1,12.2 2.5,20.5c1.3,8.3 2.7,15 4.1,20.1c1.4,5.1 3,9.1 4.8,11.8c1.8,2.7 3.8,4.5 6.2,5.2c2.1,0.9 4.9,1 8,0.5z"
                              class="st18"/>
                    </g>
                    <g>
                        <path fill="url(#svg_23)"
                              d="m537.9,394c-8.4,1.4 -16.2,1.5 -23.3,0.5c-7.2,-1 -13.6,-3.9 -19.2,-8.7s-10.5,-11.8 -14.6,-20.9c-4.1,-9.1 -7.4,-21.1 -9.8,-35.8c-2.4,-14.7 -3.1,-27 -2.1,-37c1,-9.9 3.4,-18 7.3,-24.3c3.8,-6.3 9,-11 15.5,-14.3c6.5,-3.2 13.9,-5.6 22.3,-6.9c8.4,-1.4 16.2,-1.5 23.3,-0.5c7.2,1 13.5,3.9 19.1,8.6c5.6,4.7 10.4,11.6 14.5,20.7c4.1,9.1 7.3,21 9.8,35.7c2.4,14.7 3.1,27.1 2.1,37.1c-1,10 -3.4,18.1 -7.1,24.5c-3.8,6.3 -8.9,11.1 -15.3,14.4c-6.7,3.2 -14.1,5.5 -22.5,6.9zm-5.5,-33.5c3.3,-0.5 5.9,-1.5 7.9,-3c2,-1.4 3.3,-3.8 4.1,-6.9c0.8,-3.2 1,-7.4 0.7,-12.7c-0.3,-5.3 -1.1,-12.1 -2.5,-20.4s-2.7,-15 -4.1,-20.2c-1.4,-5.2 -3,-9.2 -4.7,-12c-1.7,-2.8 -3.8,-4.6 -6.1,-5.4c-2.3,-0.8 -5.1,-0.9 -8.4,-0.3c-3.2,0.5 -5.7,1.5 -7.7,2.9c-2,1.5 -3.3,3.8 -4.1,7c-0.8,3.2 -1.1,7.6 -0.7,12.9c0.3,5.4 1.1,12.2 2.5,20.5c1.3,8.3 2.7,15 4.1,20.1c1.4,5.1 3,9.1 4.8,11.8c1.8,2.7 3.8,4.5 6.2,5.2c2.1,0.9 4.8,1.1 8,0.5z"
                              class="st19"/>
                    </g>
                </g>
            </g>
        </g>
    </g>
</svg>