<?xml version="1.0" standalone="no"?><!DOCTYPE svg PUBLIC "-//W3C//DTD SVG 1.1//EN" "http://www.w3.org/Graphics/SVG/1.1/DTD/svg11.dtd"><svg t="1646660038314" class="icon" viewBox="0 0 1024 1024" version="1.1" xmlns="http://www.w3.org/2000/svg" p-id="832" xmlns:xlink="http://www.w3.org/1999/xlink" width="200" height="200"><defs><style type="text/css"></style></defs><path d="M512 512m-448 0a448 448 0 1 0 896 0 448 448 0 1 0-896 0Z" fill="#07C160" p-id="833" data-spm-anchor-id="a313x.7781069.0.i0" class="selected"></path><path d="M640 384c0-70.6-57.4-128-128-128s-128 57.4-128 128c0 59.5 40.9 109.7 96 124v260h64v-64h54.8v-64H544V508c55.1-14.3 96-64.5 96-124z m-192 0c0-35.3 28.7-64 64-64s64 28.7 64 64-28.7 64-64 64-64-28.7-64-64z" fill="#FFFFFF" p-id="834" data-spm-anchor-id="a313x.7781069.0.i1" class="selected"></path></svg>